# This file uses centimeters as units for non-parametric coordinates.

g bend2Set tweakSet2
v 0.110427 -0.006376 -2.816398
v 0.511865 -0.064231 -2.832281
v 0.838148 0.168592 -2.768363
v 0.898144 0.555707 -2.662086
v 0.656707 0.870348 -2.575706
v -0.002712 -0.320740 -2.329164
v 0.565008 -0.403600 -2.347417
v 1.026442 -0.070152 -2.273962
v 1.111289 0.484275 -2.151827
v 0.769845 0.934904 -2.052557
v -0.002712 -0.510684 -1.171460
v 0.565008 -0.595033 -1.180640
v 1.026442 -0.255594 -1.143695
v 1.111288 0.308793 -1.082267
v 0.769845 0.767518 -1.032339
v -0.002712 -0.574248 -0.000000
v 0.565008 -0.659094 0.000000
v 1.026442 -0.317651 0.000000
v 1.111289 0.250069 0.000000
v 0.769845 0.711503 0.000000
v -0.002712 -0.510684 1.171460
v 0.565008 -0.595033 1.180640
v 1.026442 -0.255594 1.143695
v 1.111288 0.308793 1.082267
v 0.769845 0.767518 1.032339
v -0.002712 -0.320740 2.329164
v 0.565008 -0.403600 2.347417
v 1.026442 -0.070152 2.273962
v 1.111289 0.484275 2.151827
v 0.769845 0.934904 2.052557
v 0.110427 -0.006376 2.816398
v 0.511865 -0.064231 2.832281
v 0.838148 0.168592 2.768363
v 0.898144 0.555707 2.662086
v 0.656707 0.870348 2.575706
v 0.383567 0.491255 -2.903321
v 0.383567 0.491255 2.903321
v 0.110427 -0.136855 -2.288656
v 0.110427 -0.323496 -1.151086
v 0.110427 -0.385954 0.000000
v 0.110427 -0.323496 1.151086
v 0.110427 -0.136855 2.288656
v 0.656707 0.751019 2.093065
v 0.656707 0.580329 1.052713
v 0.656707 0.523209 0.000000
v 0.656707 0.580329 -1.052713
v 0.656707 0.751019 -2.093065
v 0.383567 0.307082 -2.190861
v 0.383567 0.128417 -1.101900
v 0.383567 0.068628 0.000000
v 0.383567 0.128417 1.101900
v 0.383567 0.307082 2.190861
v 0.722157 0.904156 -2.271518
vt 0.421875 0.156250
vt 0.444757 0.211493
vt 0.389515 0.266735
vt 0.343750 0.156250
vt 0.500000 0.234375
vt 0.500000 0.312500
vt 0.555243 0.211493
vt 0.610485 0.266735
vt 0.578125 0.156250
vt 0.623320 0.156250
vt 0.656250 0.156250
vt 0.468750 0.312500
vt 0.500000 0.312500
vt 0.500000 0.406485
vt 0.468750 0.406485
vt 0.531250 0.312500
vt 0.531250 0.406485
vt 0.562500 0.312500
vt 0.562500 0.406485
vt 0.593750 0.312500
vt 0.593750 0.406485
vt 0.500000 0.500470
vt 0.468750 0.500470
vt 0.531250 0.500470
vt 0.562500 0.500470
vt 0.593750 0.500470
vt 0.500000 0.594455
vt 0.468750 0.594455
vt 0.531250 0.594455
vt 0.562500 0.594455
vt 0.593750 0.594455
vt 0.500000 0.688440
vt 0.468750 0.688440
vt 0.531250 0.688440
vt 0.562500 0.688440
vt 0.593750 0.688440
vt 0.343750 0.843750
vt 0.389515 0.733265
vt 0.444757 0.788507
vt 0.421875 0.843750
vt 0.500000 0.687500
vt 0.500000 0.765625
vt 0.610485 0.733265
vt 0.555243 0.788507
vt 0.656250 0.843750
vt 0.578125 0.843750
vt 0.500000 0.150000
vt 0.500000 0.837500
vt 0.557138 0.711185
vt 0.468750 0.766095
vt 0.562500 0.234375
vt 0.628791 0.179132
vt 0.531250 0.406485
vt 0.575444 0.406485
vt 0.575444 0.500470
vt 0.531250 0.500470
vt 0.575444 0.594455
vt 0.531250 0.594455
vt 0.496209 0.289618
vt 0.487056 0.406485
vt 0.487056 0.500470
vt 0.487056 0.594455
vt 0.380362 0.821005
vn -0.117674 -0.599079 -0.791996
vn 0.188551 -0.583566 -0.789873
vn -0.147690 -0.948670 -0.279666
vn 0.239077 -0.924832 -0.295853
vn 0.668981 -0.203554 -0.714864
vn 0.849666 -0.484477 -0.208204
vn 0.722918 0.345828 -0.598158
vn 0.969657 0.235212 -0.066632
vn 0.800838 0.597341 0.042924
vn 0.744604 0.625663 -0.232618
vn 0.551835 0.586271 -0.593097
vn -0.147809 -0.983193 -0.107161
vn -0.147809 -0.983193 -0.107161
vn 0.594823 -0.799190 -0.086497
vn 0.847961 -0.526986 -0.056997
vn 0.974968 0.221060 0.023886
vn 0.803857 0.591388 0.063832
vn -0.147809 -0.989016 -0.000149
vn -0.147809 -0.989016 -0.000149
vn 0.594823 -0.803857 0.000485
vn 0.847961 -0.530059 0.000359
vn 0.974968 0.222347 -0.000173
vn 0.803857 0.594823 -0.000532
vn -0.147809 -0.983226 0.106864
vn -0.147809 -0.983225 0.106865
vn 0.594823 -0.799085 0.087460
vn 0.847961 -0.526908 0.057710
vn 0.974968 0.221023 -0.024230
vn 0.803857 0.591273 -0.064889
vn -0.147694 -0.948809 0.279191
vn 0.235170 -0.925535 0.296785
vn 0.848427 -0.485401 0.211085
vn 0.964203 0.253910 0.076439
vn 0.796255 0.604961 -0.001064
vn 0.188551 -0.583566 0.789873
vn -0.117674 -0.599079 0.791996
vn 0.668981 -0.203554 0.714864
vn 0.728561 0.363531 0.580555
vn 0.608800 0.607293 0.510449
vn 0.236727 0.118033 -0.964380
vn 0.236727 0.118033 0.964380
vn -0.857073 0.506111 -0.096319
vn -0.857134 0.505413 -0.099392
vn -0.855350 0.502055 -0.127741
vn -0.857175 0.498635 -0.128899
vn -0.857175 0.498635 0.128899
vn -0.857130 0.505482 0.099072
vn -0.855057 0.502498 0.127957
vn -0.856928 0.506685 0.094579
vn -0.857167 0.512062 0.055285
vn -0.857167 0.512051 0.055395
vn -0.857167 0.515038 -0.000269
vn -0.857167 0.515038 -0.000446
vn -0.857167 0.511985 -0.055995
vn -0.857167 0.511966 -0.056171
vn -0.857041 0.506597 0.094024
vn -0.857074 0.506096 0.096390
vn -0.858830 0.496466 0.126227
vn -0.857167 0.512038 0.055514
vn -0.857167 0.512054 0.055365
vn -0.857167 0.515038 -0.000365
vn -0.857167 0.515038 -0.000215
vn -0.857167 0.511975 -0.056091
vn -0.857167 0.511991 -0.055942
vn -0.857077 0.506047 -0.096620
vn -0.857043 0.506571 -0.094145
vn -0.858830 0.496466 -0.126227
vn -0.857037 0.506653 -0.093756
vn -0.857167 0.512040 -0.055491
vn -0.857167 0.515038 0.000238
vn -0.857167 0.512014 0.055728
vn -0.856924 0.507955 0.087536
vn -0.852141 0.508460 0.123791
s 1
g polySurface3 polySurface2 pCylinder1
f 1/1/1 2/2/2 6/4/3
f 6/4/3 2/2/2 7/3/4
f 3/5/5 8/6/6 2/2/2
f 2/2/2 8/6/6 7/3/4
f 4/7/7 9/8/8 3/5/5
f 3/5/5 9/8/8 8/6/6
f 10/11/9 9/8/8 53/10/10
f 9/8/8 4/7/7 53/10/10
f 4/7/7 5/9/11 53/10/10
f 6/12/3 7/13/4 11/15/12
f 11/15/12 7/13/4 12/14/13
f 7/13/4 8/16/6 12/14/14
f 12/14/14 8/16/6 13/17/15
f 8/16/6 9/18/8 13/17/15
f 13/17/15 9/18/8 14/19/16
f 9/18/8 10/20/9 14/19/16
f 14/19/16 10/20/9 15/21/17
f 11/15/12 12/14/13 16/23/18
f 16/23/18 12/14/13 17/22/19
f 12/14/14 13/17/15 17/22/20
f 17/22/20 13/17/15 18/24/21
f 13/17/15 14/19/16 18/24/21
f 18/24/21 14/19/16 19/25/22
f 14/19/16 15/21/17 19/25/22
f 19/25/22 15/21/17 20/26/23
f 16/23/18 17/22/19 21/28/24
f 21/28/24 17/22/19 22/27/25
f 17/22/20 18/24/21 22/27/26
f 22/27/26 18/24/21 23/29/27
f 18/24/21 19/25/22 23/29/27
f 23/29/27 19/25/22 24/30/28
f 19/25/22 20/26/23 24/30/28
f 24/30/28 20/26/23 25/31/29
f 21/28/24 22/27/25 26/33/30
f 26/33/30 22/27/25 27/32/31
f 22/27/26 23/29/27 27/32/31
f 27/32/31 23/29/27 28/34/32
f 23/29/27 24/30/28 28/34/32
f 28/34/32 24/30/28 29/35/33
f 24/30/28 25/31/29 29/35/33
f 29/35/33 25/31/29 30/36/34
f 27/38/31 32/39/35 26/37/30
f 26/37/30 32/39/35 31/40/36
f 27/38/31 28/41/32 32/39/35
f 32/39/35 28/41/32 33/42/37
f 28/41/32 29/43/33 33/42/37
f 33/42/37 29/43/33 34/44/38
f 29/43/33 30/45/34 34/44/38
f 34/44/38 30/45/34 35/46/39
f 1/1/1 36/47/40 2/2/2
f 2/2/2 36/47/40 3/5/5
f 3/5/5 36/47/40 4/7/7
f 4/7/7 36/47/40 5/9/11
f 31/40/36 32/39/35 37/48/41
f 37/48/41 32/39/35 33/42/37
f 33/42/37 34/44/38 37/48/41
f 37/48/41 34/44/38 35/46/39
s 5
f 43/49/42 52/50/43 35/46/44
f 35/46/44 52/50/43 37/48/45
f 36/47/46 48/51/47 5/9/48
f 5/9/48 48/51/47 47/52/49
f 48/51/47 49/53/50 47/52/49
f 47/52/49 49/53/50 46/54/51
f 45/55/52 46/54/51 50/56/53
f 50/56/53 46/54/51 49/53/50
f 44/57/54 45/55/52 51/58/55
f 51/58/55 45/55/52 50/56/53
f 43/49/42 44/57/54 52/50/43
f 52/50/43 44/57/54 51/58/55
f 6/12/56 38/59/57 1/1/58
f 6/12/56 11/15/59 38/59/57
f 38/59/57 11/15/59 39/60/60
f 40/61/61 39/60/60 16/23/62
f 16/23/62 39/60/60 11/15/59
f 41/62/63 40/61/61 21/28/64
f 21/28/64 40/61/61 16/23/62
f 42/63/65 41/62/63 26/37/66
f 26/37/66 41/62/63 21/28/64
f 31/40/67 42/63/65 26/37/66
f 30/36/68 43/49/42 35/46/44
f 25/31/69 44/57/54 30/36/68
f 30/36/68 44/57/54 43/49/42
f 20/26/70 45/55/52 25/31/69
f 25/31/69 45/55/52 44/57/54
f 15/21/71 46/54/51 20/26/70
f 20/26/70 46/54/51 45/55/52
f 47/52/49 46/54/51 10/11/72
f 10/11/72 46/54/51 15/21/71
f 5/9/48 47/52/49 53/10/73
f 53/10/73 47/52/49 10/11/72
f 38/59/57 48/51/47 1/1/58
f 1/1/58 48/51/47 36/47/46
f 38/59/57 39/60/60 48/51/47
f 48/51/47 39/60/60 49/53/50
f 50/56/53 49/53/50 40/61/61
f 40/61/61 49/53/50 39/60/60
f 51/58/55 50/56/53 41/62/63
f 41/62/63 50/56/53 40/61/61
f 52/50/43 51/58/55 42/63/65
f 42/63/65 51/58/55 41/62/63
f 37/48/45 52/50/43 31/40/67
f 31/40/67 52/50/43 42/63/65
g bend2Set tweakSet2
v -0.114719 -0.006376 -2.816398
v -0.516158 -0.064231 -2.832281
v -0.569301 -0.403600 -2.347417
v -0.001581 -0.320740 -2.329164
v -0.842441 0.168592 -2.768363
v -1.030735 -0.070152 -2.273962
v -0.902436 0.555707 -2.662086
v -1.115581 0.484275 -2.151827
v -0.661000 0.870348 -2.575706
v -0.726450 0.904156 -2.271518
v -0.774138 0.934904 -2.052557
v -0.569301 -0.595033 -1.180640
v -0.001581 -0.510684 -1.171460
v -1.030735 -0.255594 -1.143695
v -1.115581 0.308793 -1.082267
v -0.774138 0.767518 -1.032339
v -0.569301 -0.659094 0.000000
v -0.001581 -0.574248 -0.000000
v -1.030735 -0.317651 0.000000
v -1.115581 0.250069 0.000000
v -0.774138 0.711503 0.000000
v -0.569301 -0.595033 1.180640
v -0.001581 -0.510684 1.171460
v -1.030735 -0.255594 1.143695
v -1.115581 0.308793 1.082267
v -0.774138 0.767518 1.032339
v -0.569301 -0.403600 2.347417
v -0.001581 -0.320740 2.329164
v -1.030735 -0.070152 2.273962
v -1.115581 0.484275 2.151827
v -0.774138 0.934904 2.052557
v -0.516158 -0.064231 2.832281
v -0.114719 -0.006376 2.816398
v -0.842441 0.168592 2.768363
v -0.902436 0.555707 2.662086
v -0.661000 0.870348 2.575706
v -0.387860 0.491255 -2.903321
v -0.387860 0.491255 2.903321
v -0.661000 0.751019 2.093065
v -0.387860 0.307082 2.190861
v -0.387860 0.307082 -2.190861
v -0.661000 0.751019 -2.093065
v -0.387860 0.128417 -1.101900
v -0.661000 0.580329 -1.052713
v -0.661000 0.523209 0.000000
v -0.387860 0.068628 0.000000
v -0.661000 0.580329 1.052713
v -0.387860 0.128417 1.101900
v -0.114720 -0.136855 -2.288656
v -0.114720 -0.323496 -1.151086
v -0.114720 -0.385954 0.000000
v -0.114720 -0.323496 1.151086
v -0.114720 -0.136855 2.288656
vt 0.421875 0.156250
vt 0.343750 0.156250
vt 0.389515 0.266735
vt 0.444757 0.211493
vt 0.500000 0.312500
vt 0.500000 0.234375
vt 0.610485 0.266735
vt 0.555243 0.211493
vt 0.656250 0.156250
vt 0.623320 0.156250
vt 0.578125 0.156250
vt 0.468750 0.312500
vt 0.468750 0.406485
vt 0.500000 0.406485
vt 0.500000 0.312500
vt 0.531250 0.406485
vt 0.531250 0.312500
vt 0.562500 0.406485
vt 0.562500 0.312500
vt 0.593750 0.406485
vt 0.593750 0.312500
vt 0.468750 0.500470
vt 0.500000 0.500470
vt 0.531250 0.500470
vt 0.562500 0.500470
vt 0.593750 0.500470
vt 0.468750 0.594455
vt 0.500000 0.594455
vt 0.531250 0.594455
vt 0.562500 0.594455
vt 0.593750 0.594455
vt 0.468750 0.688440
vt 0.500000 0.688440
vt 0.531250 0.688440
vt 0.562500 0.688440
vt 0.593750 0.688440
vt 0.343750 0.843750
vt 0.421875 0.843750
vt 0.444757 0.788507
vt 0.389515 0.733265
vt 0.500000 0.765625
vt 0.500000 0.687500
vt 0.555243 0.788507
vt 0.610485 0.733265
vt 0.578125 0.843750
vt 0.656250 0.843750
vt 0.500000 0.150000
vt 0.500000 0.837500
vt 0.468750 0.766095
vt 0.557138 0.711185
vt 0.628791 0.179132
vt 0.562500 0.234375
vt 0.575444 0.406485
vt 0.531250 0.406485
vt 0.575444 0.500470
vt 0.531250 0.500470
vt 0.575444 0.594455
vt 0.531250 0.594455
vt 0.496209 0.289618
vt 0.487056 0.406485
vt 0.487056 0.500470
vt 0.487056 0.594455
vt 0.380362 0.821005
vn 0.117673 -0.599079 -0.791996
vn 0.147690 -0.948670 -0.279666
vn -0.188551 -0.583566 -0.789873
vn -0.239077 -0.924831 -0.295853
vn -0.849666 -0.484477 -0.208204
vn -0.668981 -0.203554 -0.714864
vn -0.969657 0.235212 -0.066632
vn -0.722918 0.345828 -0.598158
vn -0.800838 0.597341 0.042924
vn -0.744604 0.625663 -0.232617
vn -0.551835 0.586271 -0.593097
vn 0.147809 -0.983193 -0.107162
vn -0.237115 -0.965797 -0.104939
vn -0.847961 -0.526986 -0.056997
vn -0.974968 0.221060 0.023886
vn -0.803857 0.591388 0.063832
vn 0.147809 -0.989016 -0.000149
vn -0.237115 -0.971482 0.000178
vn -0.847961 -0.530059 0.000359
vn -0.974968 0.222347 -0.000173
vn -0.803857 0.594823 -0.000532
vn 0.147809 -0.983225 0.106864
vn -0.237115 -0.965759 0.105292
vn -0.847961 -0.526908 0.057710
vn -0.974968 0.221023 -0.024230
vn -0.803857 0.591273 -0.064889
vn 0.147694 -0.948809 0.279191
vn -0.235170 -0.925535 0.296785
vn -0.848427 -0.485401 0.211086
vn -0.964203 0.253910 0.076439
vn -0.796254 0.604961 -0.001064
vn 0.117673 -0.599079 0.791996
vn -0.188551 -0.583566 0.789873
vn -0.668981 -0.203554 0.714864
vn -0.728562 0.363531 0.580554
vn -0.608800 0.607293 0.510449
vn -0.236727 0.118033 -0.964380
vn -0.236727 0.118033 0.964380
vn 0.857175 0.498635 -0.128899
vn 0.857134 0.505413 -0.099392
vn 0.855350 0.502055 -0.127741
vn 0.857073 0.506111 -0.096319
vn 0.857175 0.498635 0.128899
vn 0.855057 0.502498 0.127957
vn 0.857130 0.505482 0.099072
vn 0.856928 0.506685 0.094579
vn 0.857167 0.512062 0.055285
vn 0.857167 0.512050 0.055395
vn 0.857167 0.515038 -0.000269
vn 0.857167 0.515038 -0.000446
vn 0.857167 0.511985 -0.055995
vn 0.857167 0.511966 -0.056171
vn 0.857041 0.506597 0.094024
vn 0.858830 0.496466 0.126227
vn 0.857074 0.506096 0.096390
vn 0.857167 0.512038 0.055514
vn 0.857167 0.512054 0.055365
vn 0.857167 0.515038 -0.000365
vn 0.857167 0.515038 -0.000215
vn 0.857167 0.511975 -0.056091
vn 0.857167 0.511991 -0.055942
vn 0.857077 0.506047 -0.096620
vn 0.857043 0.506571 -0.094145
vn 0.858830 0.496466 -0.126227
vn 0.857037 0.506653 -0.093756
vn 0.857168 0.512040 -0.055491
vn 0.857168 0.515038 0.000238
vn 0.857168 0.512014 0.055728
vn 0.856925 0.507954 0.087536
vn 0.852141 0.508461 0.123791
s 1
g polySurface2 pCylinder1 polySurface4
f 54/64/74 57/65/75 55/67/76
f 55/67/76 57/65/75 56/66/77
f 56/66/77 59/68/78 55/67/76
f 55/67/76 59/68/78 58/69/79
f 59/68/78 61/70/80 58/69/79
f 58/69/79 61/70/80 60/71/81
f 64/72/82 63/73/83 61/70/80
f 61/70/80 63/73/83 60/71/81
f 60/71/81 63/73/83 62/74/84
f 57/75/75 66/76/85 56/78/77
f 56/78/77 66/76/85 65/77/86
f 56/78/77 65/77/86 59/80/78
f 59/80/78 65/77/86 67/79/87
f 59/80/78 67/79/87 61/82/80
f 61/82/80 67/79/87 68/81/88
f 61/82/80 68/81/88 64/84/82
f 64/84/82 68/81/88 69/83/89
f 66/76/85 71/85/90 65/77/86
f 65/77/86 71/85/90 70/86/91
f 65/77/86 70/86/91 67/79/87
f 67/79/87 70/86/91 72/87/92
f 67/79/87 72/87/92 68/81/88
f 68/81/88 72/87/92 73/88/93
f 68/81/88 73/88/93 69/83/89
f 69/83/89 73/88/93 74/89/94
f 71/85/90 76/90/95 70/86/91
f 70/86/91 76/90/95 75/91/96
f 70/86/91 75/91/96 72/87/92
f 72/87/92 75/91/96 77/92/97
f 72/87/92 77/92/97 73/88/93
f 73/88/93 77/92/97 78/93/98
f 73/88/93 78/93/98 74/89/94
f 74/89/94 78/93/98 79/94/99
f 76/90/95 81/95/100 75/91/96
f 75/91/96 81/95/100 80/96/101
f 75/91/96 80/96/101 77/92/97
f 77/92/97 80/96/101 82/97/102
f 77/92/97 82/97/102 78/93/98
f 78/93/98 82/97/102 83/98/103
f 78/93/98 83/98/103 79/94/99
f 79/94/99 83/98/103 84/99/104
f 86/101/105 85/102/106 81/100/100
f 81/100/100 85/102/106 80/103/101
f 80/103/101 85/102/106 82/105/102
f 82/105/102 85/102/106 87/104/107
f 82/105/102 87/104/107 83/107/103
f 83/107/103 87/104/107 88/106/108
f 83/107/103 88/106/108 84/109/104
f 84/109/104 88/106/108 89/108/109
f 58/69/79 90/110/110 55/67/76
f 55/67/76 90/110/110 54/64/74
f 62/74/84 90/110/110 60/71/81
f 60/71/81 90/110/110 58/69/79
f 87/104/107 85/102/106 91/111/111
f 91/111/111 85/102/106 86/101/105
f 89/108/109 88/106/108 91/111/111
f 91/111/111 88/106/108 87/104/107
s 3
f 91/111/112 93/112/113 89/108/114
f 89/108/114 93/112/113 92/113/115
f 90/110/116 62/74/117 94/115/118
f 94/115/118 62/74/117 95/114/119
f 94/115/118 95/114/119 96/117/120
f 96/117/120 95/114/119 97/116/121
f 98/118/122 99/119/123 97/116/121
f 97/116/121 99/119/123 96/117/120
f 100/120/124 101/121/125 98/118/122
f 98/118/122 101/121/125 99/119/123
f 92/113/115 93/112/113 100/120/124
f 100/120/124 93/112/113 101/121/125
f 57/75/126 54/64/127 102/122/128
f 57/75/126 102/122/128 66/76/129
f 66/76/129 102/122/128 103/123/130
f 104/124/131 71/85/132 103/123/130
f 103/123/130 71/85/132 66/76/129
f 105/125/133 76/90/134 104/124/131
f 104/124/131 76/90/134 71/85/132
f 106/126/135 81/100/136 105/125/133
f 105/125/133 81/100/136 76/90/134
f 86/101/137 81/100/136 106/126/135
f 84/99/138 89/108/114 92/113/115
f 79/94/139 84/99/138 100/120/124
f 100/120/124 84/99/138 92/113/115
f 74/89/140 79/94/139 98/118/122
f 98/118/122 79/94/139 100/120/124
f 69/83/141 74/89/140 97/116/121
f 97/116/121 74/89/140 98/118/122
f 95/114/119 64/72/142 97/116/121
f 97/116/121 64/72/142 69/83/141
f 62/74/117 63/73/143 95/114/119
f 95/114/119 63/73/143 64/72/142
f 90/110/116 94/115/118 54/64/127
f 54/64/127 94/115/118 102/122/128
f 102/122/128 94/115/118 103/123/130
f 103/123/130 94/115/118 96/117/120
f 99/119/123 104/124/131 96/117/120
f 96/117/120 104/124/131 103/123/130
f 101/121/125 105/125/133 99/119/123
f 99/119/123 105/125/133 104/124/131
f 93/112/113 106/126/135 101/121/125
f 101/121/125 106/126/135 105/125/133
f 91/111/112 86/101/137 93/112/113
f 93/112/113 86/101/137 106/126/135
